<?xml version="1.0" encoding="UTF-8"?>
<!DOCTYPE svg PUBLIC "-//W3C//DTD SVG 1.0//EN" "http://www.w3.org/TR/2001/REC-SVG-20010904/DTD/svg10.dtd">
<!-- Creator: CorelDRAW -->
<svg xmlns="http://www.w3.org/2000/svg" xml:space="preserve" width="254mm" height="40.4876mm" version="1.0" style="shape-rendering:geometricPrecision; text-rendering:geometricPrecision; image-rendering:optimizeQuality; fill-rule:evenodd; clip-rule:evenodd"
viewBox="0 0 25400 4048.76"
 xmlns:xlink="http://www.w3.org/1999/xlink"
 xmlns:xodm="http://www.corel.com/coreldraw/odm/2003">
 <defs>
  <style type="text/css">
   <![CDATA[
    .fil0 {fill:#2B2A29;fill-rule:nonzero}
   ]]>
  </style>
 </defs>
 <g id="Layer_x0020_1">
  <metadata id="CorelCorpID_0Corel-Layer"/>
  <path class="fil0" d="M3005.88 3160.69c33.09,0 61.59,12.9 85.49,38.61l231.65 253.71c-161.79,191.2 -358.51,339.19 -591.06,444 -232.57,104.8 -512.93,157.19 -840.19,157.19 -286.8,0 -546.01,-49.64 -778.58,-148.91 -232.57,-99.28 -431.13,-238.1 -595.67,-416.43 -164.54,-178.31 -292.31,-391.59 -382.4,-639.78 -90.08,-248.2 -135.13,-521.19 -135.13,-819.03 0,-297.84 47.8,-570.83 142.49,-819.02 94.67,-248.22 227.05,-461.47 398.02,-639.8 170.99,-178.34 375.97,-317.14 614.06,-416.41 238.07,-99.26 500.98,-148.92 789.62,-148.92 281.28,0 531.31,45.96 750.08,137.88 218.79,91.92 409.06,214.18 570.85,366.8l-193.04 272.99c-12.87,20.24 -28.5,36.79 -47.8,49.65 -19.3,12.85 -45.05,19.29 -76.3,19.29 -34.92,0 -75.38,-17.46 -122.25,-52.4 -46.89,-34.93 -108.48,-74.46 -184.77,-117.65 -76.3,-43.21 -170.99,-81.8 -283.12,-116.75 -112.14,-34.94 -251.88,-52.4 -419.17,-52.4 -196.72,0 -376.88,34.01 -540.51,102.96 -163.63,68.94 -304.26,168.21 -422.84,297.83 -118.6,129.62 -210.52,288.64 -275.77,477.09 -65.28,188.45 -98.36,401.7 -98.36,638.86 0,240.84 34.01,455.02 102.04,642.56 68.01,187.5 161.77,346.54 281.28,477.05 119.49,130.54 260.14,229.82 421.92,297.83 161.79,68.03 336.44,102.05 523.96,102.05 113.99,0 216.94,-7.35 307.95,-21.16 91,-13.76 174.65,-34 250.95,-61.56 76.29,-27.59 147.99,-63.43 216.02,-106.64 68.01,-43.19 135.13,-94.67 201.31,-155.36 14.71,-12.86 30.33,-23.89 46.88,-32.18 16.54,-8.27 34,-11.95 52.39,-11.95zm3255.73 372.3l-2.76 477.09 -2454.34 0 0 -3960.05 2454.34 0 0 477.09 -1864.19 0 0 1254.74 1500.17 0 0 460.55 -1500.17 0 0 1290.58 1866.95 0zm3878.97 -3482.96l-1610.49 3960.05 -526.73 0 -1610.48 -3960.05 468.8 0c51.48,0 93.76,12.86 125.94,38.62 32.17,25.72 56.08,58.83 72.62,99.26l1069.98 2691.5c25.75,66.19 51.48,138.82 76.3,217.86 24.82,79.05 46.89,161.8 67.1,248.19 18.39,-86.39 38.61,-169.14 60.68,-248.19 22.05,-79.04 45.96,-151.67 71.69,-217.86l1067.22 -2691.5c12.89,-36.77 36.78,-68.94 70.78,-96.52 34.03,-27.58 75.39,-41.36 125.03,-41.36l471.56 0zm3956.19 1980.02c0,295.99 -46.89,567.15 -141.56,814.43 -94.69,247.27 -228.91,460.55 -401.72,639.8 -172.81,179.25 -379.63,318.97 -620.47,418.23 -240.84,99.3 -508.35,148.92 -802.49,148.92 -292.32,0 -558.9,-49.62 -800.65,-148.92 -241.77,-99.26 -448.59,-238.98 -620.49,-418.23 -171.89,-179.25 -306.1,-392.53 -401.7,-639.8 -95.6,-247.28 -143.4,-518.44 -143.4,-814.43 0,-294.15 47.8,-565.31 143.4,-813.51 95.6,-248.21 229.81,-462.39 401.7,-641.63 171.9,-179.25 378.72,-318.97 620.49,-419.18 241.75,-100.17 508.33,-149.83 800.65,-149.83 294.14,0 561.65,49.66 802.49,149.83 240.84,100.21 447.66,239.93 620.47,419.18 172.81,179.24 307.03,393.42 401.72,641.63 94.67,248.2 141.56,519.36 141.56,813.51zm-601.19 0c0,-235.32 -32.17,-446.75 -96.52,-634.27 -64.34,-187.53 -155.35,-346.54 -273.93,-477.07 -118.58,-130.55 -261.98,-230.73 -430.2,-300.59 -168.22,-69.87 -356.66,-104.81 -564.4,-104.81 -207.75,0 -395.27,34.94 -563.49,104.81 -168.22,69.86 -312.55,170.04 -432.04,300.59 -119.49,130.53 -211.43,289.54 -275.78,477.07 -64.34,187.52 -96.51,398.95 -96.51,634.27 0,237.16 32.17,448.59 96.51,635.18 64.35,186.62 156.29,345.63 275.78,476.16 119.49,130.55 263.82,229.81 432.04,298.77 168.22,68.94 355.74,103.86 563.49,103.86 207.74,0 396.18,-34.92 564.4,-103.86 168.22,-68.96 311.62,-168.22 430.2,-298.77 118.58,-130.53 209.59,-289.54 273.93,-476.16 64.35,-186.59 96.52,-398.02 96.52,-635.18zm4469.12 -1980.02l0 3960.05 -297.84 0c-45.96,0 -83.65,-8.27 -113.97,-24.82 -30.34,-16.55 -61.6,-43.22 -92.85,-79.97l-2236.49 -2892.84c3.68,49.66 7.36,98.36 10.11,146.16 2.75,47.81 3.68,92.86 3.68,135.14l0 2716.33 -515.69 0 0 -3960.05 303.35 0c51.47,0 90.08,5.53 115.81,17.48 25.75,11.94 54.25,39.53 85.51,81.79l2241.99 2895.58c-5.52,-53.31 -9.18,-105.7 -11.95,-156.27 -2.75,-50.57 -4.59,-97.44 -4.59,-141.57l0 -2697.01 512.93 0zm4110.62 0l0 3960.05 -297.84 0c-45.96,0 -83.65,-8.27 -113.98,-24.82 -30.34,-16.55 -61.59,-43.22 -92.84,-79.97l-2236.5 -2892.84c3.68,49.66 7.36,98.36 10.12,146.16 2.75,47.81 3.68,92.86 3.68,135.14l0 2716.33 -515.69 0 0 -3960.05 303.35 0c51.46,0 90.08,5.53 115.81,17.48 25.75,11.94 54.25,39.53 85.5,81.79l2242 2895.58c-5.52,-53.31 -9.19,-105.7 -11.95,-156.27 -2.76,-50.57 -4.6,-97.44 -4.6,-141.57l0 -2697.01 512.94 0zm3324.67 3482.96l-2.77 477.09 -2454.33 0 0 -3960.05 2454.33 0 0 477.09 -1864.19 0 0 1254.74 1500.18 0 0 460.55 -1500.18 0 0 1290.58 1866.96 0z"/>
 </g>
</svg>
