<?xml version="1.0" encoding="UTF-8"?>
<!DOCTYPE svg PUBLIC "-//W3C//DTD SVG 1.0//EN" "http://www.w3.org/TR/2001/REC-SVG-20010904/DTD/svg10.dtd">
<!-- Creator: CorelDRAW -->
<svg xmlns="http://www.w3.org/2000/svg" xml:space="preserve" width="205.003mm" height="254mm" version="1.0" style="shape-rendering:geometricPrecision; text-rendering:geometricPrecision; image-rendering:optimizeQuality; fill-rule:evenodd; clip-rule:evenodd"
viewBox="0 0 20500.34 25400"
 xmlns:xlink="http://www.w3.org/1999/xlink"
 xmlns:xodm="http://www.corel.com/coreldraw/odm/2003">
 <defs>
  <style type="text/css">
   <![CDATA[
    .fil0 {fill:#2B2A29;fill-rule:nonzero}
   ]]>
  </style>
 </defs>
 <g id="Layer_x0020_1">
  <metadata id="CorelCorpID_0Corel-Layer"/>
  <g id="_1846794972544">
   <polygon class="fil0" points="10656.2,9849.2 10656.2,2466.55 13117.08,5.67 18038.92,5.67 20499.8,2466.55 20499.8,3696.99 18038.92,3696.99 16808.48,2466.55 14347.52,2466.55 13117.08,3696.99 13117.08,8618.75 14347.52,9849.2 16808.48,9849.2 18038.92,8618.75 20499.8,8618.75 20499.8,9849.2 18038.92,12310.16 13117.08,12310.16 "/>
   <polygon class="fil0" points="9844.06,9849.2 9844.06,2466.55 7383.18,5.67 2461.34,5.67 0.45,2466.55 0.45,3696.99 2461.34,3696.99 3691.78,2466.55 6152.74,2466.55 7383.18,3696.99 7383.18,8618.75 6152.74,9849.2 3691.78,9849.2 2461.34,8618.75 0.45,8618.75 0.45,9849.2 2461.34,12310.16 7383.18,12310.16 "/>
   <polygon class="fil0" points="10656.2,22944.79 10656.2,15562.14 13117.08,13101.1 18038.92,13101.1 20499.8,15562.14 20499.8,16792.59 18038.92,16792.59 16808.48,15562.14 14347.52,15562.14 13117.08,16792.59 13117.08,21714.35 14347.52,22944.79 16808.48,22944.79 18038.92,21714.35 20499.8,21714.35 20499.8,22944.79 18038.92,25405.67 13117.08,25405.67 "/>
   <polygon class="fil0" points="9844.06,22944.79 9844.06,15562.14 7383.18,13101.1 2461.34,13101.1 0.45,15562.14 0.45,16792.59 2461.34,16792.59 3691.78,15562.14 6152.74,15562.14 7383.18,16792.59 7383.18,21714.35 6152.74,22944.79 3691.78,22944.79 2461.34,21714.35 0.45,21714.35 0.45,22944.79 2461.34,25405.67 7383.18,25405.67 "/>
  </g>
 </g>
</svg>
